<svg width="139" height="54" viewBox="0 0 139 54" fill="none" xmlns="http://www.w3.org/2000/svg">
<path d="M114 38H139V42.0358C139 44.6855 137.262 47.0214 134.724 47.7828L114 54V38Z" fill="#9C9B9B"/>
<rect width="139" height="47" rx="6" fill="white"/>
<path d="M25.9911 20.4336V28.4492H26.8641V31.1562H26.2782V29H20.0497V31.1562H19.4637V28.4492H20.0848C20.3856 27.9336 20.663 27.3496 20.9169 26.6973C21.1747 26.041 21.4032 25.3535 21.6024 24.6348C21.8016 23.916 21.9618 23.1973 22.0829 22.4785C22.2079 21.7598 22.286 21.0781 22.3173 20.4336H25.9911ZM25.3876 20.9844H22.8563C22.8212 21.5625 22.743 22.1836 22.622 22.8477C22.5009 23.5078 22.3446 24.1777 22.1532 24.8574C21.9657 25.5332 21.7509 26.1797 21.5087 26.7969C21.2665 27.4141 21.0087 27.9648 20.7352 28.4492H25.3876V20.9844ZM29.8763 22.6309V27.207C29.8763 27.2969 29.8744 27.3887 29.8705 27.4824C29.8705 27.5762 29.8685 27.6719 29.8646 27.7695C29.8646 27.8672 29.8627 27.9629 29.8587 28.0566C29.8548 28.1504 29.849 28.2422 29.8412 28.332L33.6439 22.6309H34.3705V29H33.808V24.3828C33.808 24.2656 33.808 24.1445 33.808 24.0195C33.8119 23.8906 33.8158 23.7637 33.8197 23.6387C33.8236 23.5098 33.8275 23.3887 33.8314 23.2754L30.0111 29H29.3021V22.6309H29.8763ZM42.2987 24.1836C42.2987 24.5859 42.1932 24.9023 41.9823 25.1328C41.7752 25.3633 41.4998 25.5195 41.1561 25.6016V25.6367C41.5741 25.6992 41.91 25.8574 42.1639 26.1113C42.4217 26.3613 42.5506 26.7207 42.5506 27.1895C42.5506 27.5605 42.4686 27.8809 42.3045 28.1504C42.1405 28.4199 41.8885 28.6289 41.5487 28.7773C41.2127 28.9258 40.7811 29 40.2537 29H37.5291V22.6309H40.1834C40.6522 22.6309 41.0428 22.6914 41.3553 22.8125C41.6678 22.9297 41.9022 23.1035 42.0584 23.334C42.2186 23.5605 42.2987 23.8438 42.2987 24.1836ZM41.9354 27.1895C41.9354 26.7324 41.7811 26.4043 41.4725 26.2051C41.1639 26.0059 40.7108 25.9062 40.1131 25.9062H38.1268V28.4961H40.1483C40.7459 28.4961 41.1932 28.3906 41.4901 28.1797C41.787 27.9648 41.9354 27.6348 41.9354 27.1895ZM41.6952 24.2305C41.6952 23.8945 41.576 23.6309 41.3377 23.4395C41.0995 23.2441 40.6952 23.1465 40.1248 23.1465H38.1268V25.3848H40.0662C40.6287 25.3848 41.0409 25.2891 41.3026 25.0977C41.5643 24.9023 41.6952 24.6133 41.6952 24.2305ZM45.9202 22.6309V27.207C45.9202 27.2969 45.9183 27.3887 45.9144 27.4824C45.9144 27.5762 45.9124 27.6719 45.9085 27.7695C45.9085 27.8672 45.9066 27.9629 45.9027 28.0566C45.8987 28.1504 45.8929 28.2422 45.8851 28.332L49.6878 22.6309H50.4144V29H49.8519V24.3828C49.8519 24.2656 49.8519 24.1445 49.8519 24.0195C49.8558 23.8906 49.8597 23.7637 49.8636 23.6387C49.8675 23.5098 49.8714 23.3887 49.8753 23.2754L46.055 29H45.346V22.6309H45.9202ZM57.6277 23.1523H55.4715V29H54.8914V23.1523H52.7469V22.6309H57.6277V23.1523ZM60.5227 22.6309V27.207C60.5227 27.2969 60.5208 27.3887 60.5169 27.4824C60.5169 27.5762 60.5149 27.6719 60.511 27.7695C60.511 27.8672 60.5091 27.9629 60.5052 28.0566C60.5012 28.1504 60.4954 28.2422 60.4876 28.332L64.2903 22.6309H65.0169V29H64.4544V24.3828C64.4544 24.2656 64.4544 24.1445 64.4544 24.0195C64.4583 23.8906 64.4622 23.7637 64.4661 23.6387C64.47 23.5098 64.4739 23.3887 64.4778 23.2754L60.6575 29H59.9485V22.6309H60.5227ZM70.7244 29.1172C70.0916 29.1172 69.5564 28.9863 69.1189 28.7246C68.6853 28.459 68.3572 28.082 68.1345 27.5938C67.9158 27.1016 67.8064 26.5195 67.8064 25.8477C67.8064 25.1484 67.9334 24.5508 68.1873 24.0547C68.4412 23.5547 68.7986 23.1719 69.2595 22.9062C69.7205 22.6406 70.2615 22.5078 70.8826 22.5078C71.1873 22.5078 71.4705 22.5352 71.7322 22.5898C71.9939 22.6445 72.2302 22.7207 72.4412 22.8184L72.283 23.3398C72.0642 23.2422 71.8318 23.168 71.5857 23.1172C71.3396 23.0664 71.1033 23.041 70.8767 23.041C70.3533 23.041 69.908 23.1562 69.5408 23.3867C69.1775 23.6133 68.8982 23.9375 68.7029 24.3594C68.5115 24.7773 68.4158 25.2715 68.4158 25.8418C68.4158 26.377 68.4978 26.8516 68.6619 27.2656C68.8259 27.6758 69.0779 28 69.4177 28.2383C69.7576 28.4727 70.1931 28.5898 70.7244 28.5898C71.033 28.5898 71.3259 28.5586 71.6033 28.4961C71.8845 28.4336 72.1404 28.3535 72.3709 28.2559V28.7949C72.1638 28.8887 71.9236 28.9648 71.6502 29.0234C71.3806 29.0859 71.072 29.1172 70.7244 29.1172ZM75.5002 25.3145H77.7678C78.2678 25.3145 78.678 25.3848 78.9983 25.5254C79.3225 25.666 79.5627 25.8691 79.719 26.1348C79.8791 26.4004 79.9592 26.7207 79.9592 27.0957C79.9592 27.4941 79.8752 27.8359 79.7073 28.1211C79.5432 28.4023 79.2893 28.6191 78.9455 28.7715C78.6018 28.9238 78.1682 29 77.6448 29H74.9026V22.6309H75.5002V25.3145ZM79.3616 27.1016C79.3616 26.6758 79.2209 26.3574 78.9397 26.1465C78.6584 25.9355 78.2424 25.8301 77.6916 25.8301H75.5002V28.4961H77.5979C78.1955 28.4961 78.6389 28.3809 78.928 28.1504C79.217 27.916 79.3616 27.5664 79.3616 27.1016ZM91.6613 24.1836C91.6613 24.5859 91.5559 24.9023 91.3449 25.1328C91.1379 25.3633 90.8625 25.5195 90.5188 25.6016V25.6367C90.9367 25.6992 91.2727 25.8574 91.5266 26.1113C91.7844 26.3613 91.9133 26.7207 91.9133 27.1895C91.9133 27.5605 91.8313 27.8809 91.6672 28.1504C91.5031 28.4199 91.2512 28.6289 90.9113 28.7773C90.5754 28.9258 90.1438 29 89.6164 29H86.8918V22.6309H89.5461C90.0148 22.6309 90.4055 22.6914 90.718 22.8125C91.0305 22.9297 91.2648 23.1035 91.4211 23.334C91.5813 23.5605 91.6613 23.8438 91.6613 24.1836ZM91.298 27.1895C91.298 26.7324 91.1438 26.4043 90.8352 26.2051C90.5266 26.0059 90.0734 25.9062 89.4758 25.9062H87.4895V28.4961H89.5109C90.1086 28.4961 90.5559 28.3906 90.8527 28.1797C91.1496 27.9648 91.298 27.6348 91.298 27.1895ZM91.0578 24.2305C91.0578 23.8945 90.9387 23.6309 90.7004 23.4395C90.4621 23.2441 90.0578 23.1465 89.4875 23.1465H87.4895V25.3848H89.4289C89.9914 25.3848 90.4035 25.2891 90.6652 25.0977C90.927 24.9023 91.0578 24.6133 91.0578 24.2305ZM95.2946 22.6309V29H94.7028V22.6309H95.2946ZM95.0075 20.2754C95.1559 20.2754 95.2653 20.3203 95.3356 20.4102C95.4059 20.4961 95.4411 20.6133 95.4411 20.7617C95.4411 20.9102 95.4059 21.0273 95.3356 21.1133C95.2653 21.1992 95.1559 21.2422 95.0075 21.2422C94.8669 21.2422 94.7614 21.1992 94.6911 21.1133C94.6208 21.0273 94.5856 20.9102 94.5856 20.7617C94.5856 20.6133 94.6208 20.4961 94.6911 20.4102C94.7614 20.3203 94.8669 20.2754 95.0075 20.2754ZM102.801 22.6309V28.4785H103.656V31.1562H103.076V29H98.2013V31.1562H97.6271V28.4785H98.0548C98.4142 27.9824 98.715 27.4297 98.9572 26.8203C99.1994 26.2109 99.383 25.5547 99.508 24.8516C99.6369 24.1445 99.7052 23.4043 99.713 22.6309H102.801ZM102.221 23.1289H100.252C100.221 23.8281 100.143 24.498 100.018 25.1387C99.8927 25.7754 99.7209 26.375 99.5021 26.9375C99.2834 27.4961 99.0177 28.0098 98.7052 28.4785H102.221V23.1289ZM108.426 22.5078C108.969 22.5078 109.421 22.6348 109.78 22.8887C110.143 23.1426 110.413 23.4902 110.589 23.9316C110.768 24.373 110.858 24.8789 110.858 25.4492V25.877H106.258C106.258 26.752 106.46 27.4238 106.862 27.8926C107.268 28.3613 107.848 28.5957 108.602 28.5957C108.997 28.5957 109.339 28.5645 109.628 28.502C109.921 28.4355 110.245 28.3242 110.6 28.168V28.7129C110.288 28.8535 109.975 28.9551 109.663 29.0176C109.35 29.084 108.991 29.1172 108.585 29.1172C107.94 29.1172 107.399 28.9844 106.962 28.7188C106.528 28.4492 106.2 28.0703 105.977 27.582C105.758 27.0938 105.649 26.5234 105.649 25.8711C105.649 25.2344 105.755 24.6621 105.965 24.1543C106.18 23.6465 106.493 23.2461 106.903 22.9531C107.317 22.6562 107.825 22.5078 108.426 22.5078ZM108.421 23.0176C107.811 23.0176 107.317 23.2207 106.938 23.627C106.563 24.0293 106.342 24.6113 106.276 25.373H110.243C110.243 24.9082 110.176 24.498 110.044 24.1426C109.911 23.7871 109.71 23.5117 109.44 23.3164C109.174 23.1172 108.835 23.0176 108.421 23.0176ZM118.915 25.8066C118.915 26.2988 118.855 26.748 118.734 27.1543C118.612 27.5566 118.433 27.9043 118.194 28.1973C117.956 28.4902 117.659 28.7168 117.304 28.877C116.952 29.0371 116.542 29.1172 116.073 29.1172C115.628 29.1172 115.232 29.0391 114.884 28.8828C114.536 28.7227 114.241 28.4961 113.999 28.2031C113.761 27.9102 113.579 27.5625 113.454 27.1602C113.329 26.7539 113.267 26.3027 113.267 25.8066C113.267 25.123 113.38 24.5352 113.607 24.043C113.837 23.5469 114.165 23.168 114.591 22.9062C115.021 22.6406 115.534 22.5078 116.132 22.5078C116.749 22.5078 117.263 22.6484 117.673 22.9297C118.087 23.207 118.398 23.5938 118.605 24.0898C118.812 24.5859 118.915 25.1582 118.915 25.8066ZM113.876 25.8066C113.876 26.3652 113.956 26.8535 114.116 27.2715C114.276 27.6895 114.519 28.0156 114.843 28.25C115.171 28.4844 115.585 28.6016 116.085 28.6016C116.597 28.6016 117.017 28.4844 117.345 28.25C117.673 28.0156 117.915 27.6875 118.071 27.2656C118.228 26.8438 118.306 26.3574 118.306 25.8066C118.306 25.2715 118.232 24.7949 118.083 24.377C117.935 23.959 117.7 23.6309 117.38 23.3926C117.06 23.1504 116.642 23.0293 116.126 23.0293C115.388 23.0293 114.827 23.2754 114.444 23.7676C114.066 24.2598 113.876 24.9395 113.876 25.8066Z" fill="black"/>
</svg>
