<svg width="79" height="78" viewBox="0 0 79 78" fill="none" xmlns="http://www.w3.org/2000/svg">
<g id="Telegram App">
<path id="Vector" d="M69.7281 9.33857C68.9683 9.37191 68.2287 9.58337 67.5617 9.85045C66.9016 10.1157 63.1011 11.7379 57.4888 14.1374C51.8765 16.5369 44.5809 19.6616 37.3489 22.7601C22.885 28.9569 8.67174 35.0542 8.67174 35.0542L8.77533 35.0146C8.77533 35.0146 7.91749 35.3013 7.04775 35.9073C6.61289 36.2103 6.14504 36.6015 5.76197 37.1718C5.37891 37.7421 5.09886 38.5503 5.2044 39.4051C5.57509 42.4077 8.68697 43.2594 8.68697 43.2594L8.69916 43.2655L22.5868 48.0187C22.9409 49.1999 26.799 62.0769 27.6477 64.8039C28.1164 66.3116 28.5551 67.1813 29.0127 67.7746C29.2417 68.0715 29.4816 68.3013 29.747 68.4693C29.8524 68.536 29.9633 68.5861 30.073 68.6308C30.0753 68.6318 30.0767 68.6297 30.0791 68.6308C30.0926 68.6367 30.1052 68.6372 30.1187 68.6429L30.0821 68.6338C30.1076 68.6441 30.1328 68.6614 30.1583 68.6704C30.2078 68.6877 30.2382 68.6871 30.3015 68.7008C31.892 69.2562 33.2082 68.2255 33.2082 68.2255L33.2631 68.1829L41.7943 60.2701L55.6393 71.0652L55.813 71.1444C58.2364 72.2204 60.428 71.6201 61.6417 70.6326C62.8554 69.645 63.3327 68.3718 63.3327 68.3718L63.3845 68.2377L73.558 15.2129C73.8183 14.0267 73.8553 13.0013 73.6098 12.0747C73.3643 11.1481 72.7678 10.3426 72.0193 9.89615C71.2708 9.4497 70.4879 9.30524 69.7281 9.33857ZM69.8103 12.5104C70.1189 12.4961 70.3476 12.5314 70.4197 12.5744C70.4918 12.6174 70.5242 12.6117 70.5934 12.8729C70.6626 13.1342 70.7001 13.6845 70.5111 14.5457L70.505 14.564L60.3894 67.281C60.3654 67.3341 60.1547 67.8217 59.6734 68.2133C59.1824 68.6128 58.6363 68.9247 57.1871 68.3169L42.0472 56.5103L41.6206 56.1751L41.6115 56.1843L37.0839 52.787L62.5283 22.8515C62.7238 22.622 62.8487 22.3409 62.8878 22.042C62.9269 21.7431 62.8786 21.4393 62.7487 21.1673C62.6188 20.8953 62.4129 20.6667 62.1559 20.5092C61.8989 20.3517 61.6017 20.2721 61.3004 20.2799C61.006 20.2876 60.7197 20.3784 60.4747 20.5419L23.6563 45.0876L9.74729 40.3253C9.74729 40.3253 8.36613 39.5567 8.30002 39.0212C8.29635 38.9916 8.28005 39.0184 8.35182 38.9115C8.42359 38.8047 8.60399 38.6243 8.83018 38.4667C9.28254 38.1515 9.79908 37.9609 9.79908 37.9609L9.85088 37.9426L9.90268 37.9213C9.90268 37.9213 24.1167 31.8237 38.5799 25.6272C45.8115 22.5289 53.1057 19.4065 58.7167 17.0076C64.3261 14.6092 68.3794 12.883 68.7226 12.745C69.1133 12.5885 69.5018 12.5247 69.8103 12.5104ZM52.9367 29.3169L33.6409 52.0192L33.6317 52.0283C33.6016 52.0646 33.5731 52.1022 33.5464 52.1411C33.5158 52.1833 33.4873 52.227 33.4611 52.2721C33.3527 52.4561 33.2832 52.6604 33.257 52.8723C33.257 52.8764 33.257 52.8804 33.257 52.8845L30.7433 64.1884C30.7015 64.0663 30.6723 64.0216 30.6275 63.8776V63.8746C29.8291 61.3092 26.1891 49.165 25.6855 47.4855L52.9367 29.3169ZM35.8194 55.7394L39.2867 58.3415L34.1924 63.0641L35.8194 55.7394Z" fill="white"/>
</g>
</svg>
